{"asset":{"version":"2.0","generator":"Blockbench 5.0.5 glTF exporter"},"scenes":[{"nodes":[17],"name":"blockbench_export"}],"scene":0,"nodes":[{"name":"RightFoot"},{"translation":[-0.0625,-0.625,0],"name":"RightLowerLeg","children":[0]},{"translation":[0.3125,1,0.0625],"name":"RightUpperLeg","children":[1]},{"translation":[-0.0625,-0.4375,0],"name":"LeftFoot"},{"translation":[0.0625,-0.625,0],"name":"LeftLowerLeg","children":[3]},{"translation":[-0.3125,1,0.0625],"name":"LeftUpperLeg","children":[4]},{"translation":[0.4375,0,-0.0625],"name":"RightLowerArm"},{"translation":[0.5625,0.875,0.125],"name":"RightUpperArm","children":[6]},{"name":"LeftLowerArm"},{"translation":[-0.5625,0.875,0.125],"name":"LeftUpperArm","children":[8]},{"translation":[0,0.0625,0],"name":"InsideHead"},{"translation":[0,0.375,0],"name":"Screws"},{"translation":[0,0.0625,0],"name":"Mask","children":[11]},{"translation":[0,1,0],"name":"Head","children":[10,12]},{"name":"Chest","children":[7,9,13]},{"translation":[0,1,0],"name":"Spine","children":[14]},{"name":"Armature","children":[2,5,15]},{"translation":[0,0.1875,0],"name":"Armature","mesh":0,"children":[16],"skin":0}],"bufferViews":[{"buffer":0,"byteOffset":0,"byteLength":7200,"target":34962,"byteStride":12},{"buffer":0,"byteOffset":7200,"byteLength":7200,"target":34962,"byteStride":12},{"buffer":0,"byteOffset":14400,"byteLength":4800,"target":34962,"byteStride":8},{"buffer":0,"byteOffset":19200,"byteLength":4800,"target":34962,"byteStride":8},{"buffer":0,"byteOffset":24000,"byteLength":9600,"target":34962,"byteStride":16},{"buffer":0,"byteOffset":33600,"byteLength":1800,"target":34963},{"buffer":0,"byteOffset":35400,"byteLength":1088}],"buffers":[{"byteLength":36488,"uri":"data:application/octet-stream;base64,"}],"accessors":[{"bufferView":0,"componentType":5126,"count":600,"max":[1.6875,2.875,0.375],"min":[-1.25,-0.1875,-0.25],"type":"VEC3"},{"bufferView":1,"componentType":5126,"count":600,"max":[1,1,1],"min":[-1,-1,-1],"type":"VEC3"},{"bufferView":2,"componentType":5126,"count":600,"max":[0.578125,0.5625],"min":[0,0],"type":"VEC2"},{"bufferView":3,"componentType":5123,"count":600,"max":[0,16,0,0],"min":[0,1,0,0],"type":"VEC4"},{"bufferView":4,"componentType":5126,"count":600,"max":[0,1,0,0],"min":[0,1,0,0],"type":"VEC4"},{"bufferView":5,"componentType":5123,"count":900,"max":[599],"min":[0],"type":"SCALAR"},{"bufferView":6,"componentType":5126,"count":17,"max":[1,0,0,0,0,1,0,0,0,0,1,0,0.5625,0.0625,0,1],"min":[1,0,0,0,0,1,0,0,0,0,1,0,-1,-2.4375,-0.125,1],"type":"MAT4"}],"materials":[{"pbrMetallicRoughness":{"metallicFactor":0,"roughnessFactor":1,"baseColorTexture":{"index":0}},"alphaMode":"MASK","alphaCutoff":0.05,"doubleSided":true}],"textures":[{"sampler":0,"source":0,"name":"texture"}],"samplers":[{"magFilter":9728,"minFilter":9728,"wrapS":33071,"wrapT":33071}],"images":[{"mimeType":"image/png","uri":"data:image/png;base64,"}],"meshes":[{"primitives":[{"mode":4,"attributes":{"POSITION":0,"NORMAL":1,"TEXCOORD_0":2,"JOINTS_0":3,"WEIGHTS_0":4},"indices":5,"material":0}]}],"skins":[{"inverseBindMatrices":6,"joints":[16,2,1,0,5,4,3,15,14,7,6,9,8,13,10,12,11],"skeleton":16}]}